<mxfile host="app.diagrams.net" modified="2023-12-06T10:48:00.173Z" agent="Mozilla/5.0 (Windows NT 10.0; Win64; x64) AppleWebKit/537.36 (KHTML, like Gecko) Chrome/116.0.5845.686 YaBrowser/23.9.5.686 Yowser/2.5 Safari/537.36" etag="KZS6G6YsYdkVslQUnlfK" version="22.1.5" type="github">
  <diagram id="C5RBs43oDa-KdzZeNtuy" name="Page-1">
    <mxGraphModel dx="1386" dy="791" grid="1" gridSize="10" guides="1" tooltips="1" connect="1" arrows="1" fold="1" page="1" pageScale="1" pageWidth="827" pageHeight="1169" math="0" shadow="0">
      <root>
        <mxCell id="WIyWlLk6GJQsqaUBKTNV-0" />
        <mxCell id="WIyWlLk6GJQsqaUBKTNV-1" parent="WIyWlLk6GJQsqaUBKTNV-0" />
        <mxCell id="soAtLsaEtBujQBLIhwr8-7" style="edgeStyle=orthogonalEdgeStyle;rounded=0;orthogonalLoop=1;jettySize=auto;html=1;exitX=0.5;exitY=1;exitDx=0;exitDy=0;entryX=0.5;entryY=0;entryDx=0;entryDy=0;" edge="1" parent="WIyWlLk6GJQsqaUBKTNV-1" source="soAtLsaEtBujQBLIhwr8-1" target="soAtLsaEtBujQBLIhwr8-3">
          <mxGeometry relative="1" as="geometry" />
        </mxCell>
        <mxCell id="soAtLsaEtBujQBLIhwr8-1" value="Начало" style="ellipse;whiteSpace=wrap;html=1;aspect=fixed;" vertex="1" parent="WIyWlLk6GJQsqaUBKTNV-1">
          <mxGeometry x="374" y="60" width="80" height="80" as="geometry" />
        </mxCell>
        <mxCell id="soAtLsaEtBujQBLIhwr8-2" value="Конец" style="ellipse;whiteSpace=wrap;html=1;aspect=fixed;" vertex="1" parent="WIyWlLk6GJQsqaUBKTNV-1">
          <mxGeometry x="374" y="650" width="80" height="80" as="geometry" />
        </mxCell>
        <mxCell id="soAtLsaEtBujQBLIhwr8-9" style="edgeStyle=orthogonalEdgeStyle;rounded=0;orthogonalLoop=1;jettySize=auto;html=1;exitX=0.5;exitY=1;exitDx=0;exitDy=0;entryX=0.5;entryY=0;entryDx=0;entryDy=0;" edge="1" parent="WIyWlLk6GJQsqaUBKTNV-1" source="soAtLsaEtBujQBLIhwr8-3" target="soAtLsaEtBujQBLIhwr8-4">
          <mxGeometry relative="1" as="geometry" />
        </mxCell>
        <mxCell id="soAtLsaEtBujQBLIhwr8-3" value="Объявление A, B, C" style="rounded=1;whiteSpace=wrap;html=1;" vertex="1" parent="WIyWlLk6GJQsqaUBKTNV-1">
          <mxGeometry x="354" y="180" width="120" height="60" as="geometry" />
        </mxCell>
        <mxCell id="soAtLsaEtBujQBLIhwr8-10" style="edgeStyle=orthogonalEdgeStyle;rounded=0;orthogonalLoop=1;jettySize=auto;html=1;exitX=0;exitY=0.5;exitDx=0;exitDy=0;entryX=0.5;entryY=0;entryDx=0;entryDy=0;" edge="1" parent="WIyWlLk6GJQsqaUBKTNV-1" source="soAtLsaEtBujQBLIhwr8-4" target="soAtLsaEtBujQBLIhwr8-5">
          <mxGeometry relative="1" as="geometry" />
        </mxCell>
        <mxCell id="soAtLsaEtBujQBLIhwr8-14" style="edgeStyle=orthogonalEdgeStyle;rounded=0;orthogonalLoop=1;jettySize=auto;html=1;exitX=1;exitY=0.5;exitDx=0;exitDy=0;entryX=0.5;entryY=0;entryDx=0;entryDy=0;" edge="1" parent="WIyWlLk6GJQsqaUBKTNV-1" source="soAtLsaEtBujQBLIhwr8-4" target="soAtLsaEtBujQBLIhwr8-13">
          <mxGeometry relative="1" as="geometry" />
        </mxCell>
        <mxCell id="soAtLsaEtBujQBLIhwr8-4" value="A &amp;gt;= B" style="rhombus;whiteSpace=wrap;html=1;" vertex="1" parent="WIyWlLk6GJQsqaUBKTNV-1">
          <mxGeometry x="374" y="290" width="80" height="80" as="geometry" />
        </mxCell>
        <mxCell id="soAtLsaEtBujQBLIhwr8-12" style="edgeStyle=orthogonalEdgeStyle;rounded=0;orthogonalLoop=1;jettySize=auto;html=1;exitX=0;exitY=0.5;exitDx=0;exitDy=0;" edge="1" parent="WIyWlLk6GJQsqaUBKTNV-1" source="soAtLsaEtBujQBLIhwr8-5" target="soAtLsaEtBujQBLIhwr8-11">
          <mxGeometry relative="1" as="geometry" />
        </mxCell>
        <mxCell id="soAtLsaEtBujQBLIhwr8-26" style="edgeStyle=orthogonalEdgeStyle;rounded=0;orthogonalLoop=1;jettySize=auto;html=1;exitX=1;exitY=0.5;exitDx=0;exitDy=0;" edge="1" parent="WIyWlLk6GJQsqaUBKTNV-1" source="soAtLsaEtBujQBLIhwr8-5" target="soAtLsaEtBujQBLIhwr8-21">
          <mxGeometry relative="1" as="geometry" />
        </mxCell>
        <mxCell id="soAtLsaEtBujQBLIhwr8-5" value="A &amp;gt;= C" style="rhombus;whiteSpace=wrap;html=1;" vertex="1" parent="WIyWlLk6GJQsqaUBKTNV-1">
          <mxGeometry x="214" y="390" width="80" height="80" as="geometry" />
        </mxCell>
        <mxCell id="soAtLsaEtBujQBLIhwr8-29" style="edgeStyle=orthogonalEdgeStyle;rounded=0;orthogonalLoop=1;jettySize=auto;html=1;exitX=0.5;exitY=1;exitDx=0;exitDy=0;" edge="1" parent="WIyWlLk6GJQsqaUBKTNV-1" source="soAtLsaEtBujQBLIhwr8-11" target="soAtLsaEtBujQBLIhwr8-2">
          <mxGeometry relative="1" as="geometry" />
        </mxCell>
        <mxCell id="soAtLsaEtBujQBLIhwr8-11" value="Напечатать А" style="rounded=1;whiteSpace=wrap;html=1;" vertex="1" parent="WIyWlLk6GJQsqaUBKTNV-1">
          <mxGeometry x="94" y="500" width="120" height="60" as="geometry" />
        </mxCell>
        <mxCell id="soAtLsaEtBujQBLIhwr8-24" style="edgeStyle=orthogonalEdgeStyle;rounded=0;orthogonalLoop=1;jettySize=auto;html=1;exitX=0;exitY=0.5;exitDx=0;exitDy=0;entryX=0.5;entryY=0;entryDx=0;entryDy=0;" edge="1" parent="WIyWlLk6GJQsqaUBKTNV-1" source="soAtLsaEtBujQBLIhwr8-13" target="soAtLsaEtBujQBLIhwr8-21">
          <mxGeometry relative="1" as="geometry" />
        </mxCell>
        <mxCell id="soAtLsaEtBujQBLIhwr8-25" style="edgeStyle=orthogonalEdgeStyle;rounded=0;orthogonalLoop=1;jettySize=auto;html=1;exitX=1;exitY=0.5;exitDx=0;exitDy=0;" edge="1" parent="WIyWlLk6GJQsqaUBKTNV-1" source="soAtLsaEtBujQBLIhwr8-13" target="soAtLsaEtBujQBLIhwr8-18">
          <mxGeometry relative="1" as="geometry" />
        </mxCell>
        <mxCell id="soAtLsaEtBujQBLIhwr8-13" value="B &amp;lt; C" style="rhombus;whiteSpace=wrap;html=1;" vertex="1" parent="WIyWlLk6GJQsqaUBKTNV-1">
          <mxGeometry x="510" y="390" width="80" height="80" as="geometry" />
        </mxCell>
        <mxCell id="soAtLsaEtBujQBLIhwr8-15" value="&lt;font style=&quot;font-size: 13px;&quot;&gt;true&lt;/font&gt;" style="text;strokeColor=none;fillColor=none;html=1;fontSize=24;fontStyle=1;verticalAlign=middle;align=center;" vertex="1" parent="WIyWlLk6GJQsqaUBKTNV-1">
          <mxGeometry x="294" y="290" width="100" height="40" as="geometry" />
        </mxCell>
        <mxCell id="soAtLsaEtBujQBLIhwr8-16" value="&lt;font style=&quot;font-size: 13px;&quot;&gt;true&lt;/font&gt;" style="text;strokeColor=none;fillColor=none;html=1;fontSize=24;fontStyle=1;verticalAlign=middle;align=center;" vertex="1" parent="WIyWlLk6GJQsqaUBKTNV-1">
          <mxGeometry x="120" y="390" width="100" height="40" as="geometry" />
        </mxCell>
        <mxCell id="soAtLsaEtBujQBLIhwr8-17" value="&lt;font style=&quot;font-size: 13px;&quot;&gt;false&lt;/font&gt;" style="text;strokeColor=none;fillColor=none;html=1;fontSize=24;fontStyle=1;verticalAlign=middle;align=center;" vertex="1" parent="WIyWlLk6GJQsqaUBKTNV-1">
          <mxGeometry x="430" y="290" width="100" height="40" as="geometry" />
        </mxCell>
        <mxCell id="soAtLsaEtBujQBLIhwr8-32" style="edgeStyle=orthogonalEdgeStyle;rounded=0;orthogonalLoop=1;jettySize=auto;html=1;exitX=0.5;exitY=1;exitDx=0;exitDy=0;entryX=0.5;entryY=0;entryDx=0;entryDy=0;" edge="1" parent="WIyWlLk6GJQsqaUBKTNV-1" source="soAtLsaEtBujQBLIhwr8-18" target="soAtLsaEtBujQBLIhwr8-2">
          <mxGeometry relative="1" as="geometry" />
        </mxCell>
        <mxCell id="soAtLsaEtBujQBLIhwr8-18" value="Напечатать B" style="rounded=1;whiteSpace=wrap;html=1;" vertex="1" parent="WIyWlLk6GJQsqaUBKTNV-1">
          <mxGeometry x="610" y="500" width="120" height="60" as="geometry" />
        </mxCell>
        <mxCell id="soAtLsaEtBujQBLIhwr8-20" value="&lt;font style=&quot;font-size: 13px;&quot;&gt;true&lt;/font&gt;" style="text;strokeColor=none;fillColor=none;html=1;fontSize=24;fontStyle=1;verticalAlign=middle;align=center;" vertex="1" parent="WIyWlLk6GJQsqaUBKTNV-1">
          <mxGeometry x="430" y="390" width="100" height="40" as="geometry" />
        </mxCell>
        <mxCell id="soAtLsaEtBujQBLIhwr8-30" style="edgeStyle=orthogonalEdgeStyle;rounded=0;orthogonalLoop=1;jettySize=auto;html=1;exitX=0.5;exitY=1;exitDx=0;exitDy=0;" edge="1" parent="WIyWlLk6GJQsqaUBKTNV-1" source="soAtLsaEtBujQBLIhwr8-21">
          <mxGeometry relative="1" as="geometry">
            <mxPoint x="414" y="650" as="targetPoint" />
          </mxGeometry>
        </mxCell>
        <mxCell id="soAtLsaEtBujQBLIhwr8-21" value="Напечатать C" style="rounded=1;whiteSpace=wrap;html=1;" vertex="1" parent="WIyWlLk6GJQsqaUBKTNV-1">
          <mxGeometry x="354" y="500" width="120" height="60" as="geometry" />
        </mxCell>
        <mxCell id="soAtLsaEtBujQBLIhwr8-27" value="&lt;font style=&quot;font-size: 13px;&quot;&gt;false&lt;/font&gt;" style="text;strokeColor=none;fillColor=none;html=1;fontSize=24;fontStyle=1;verticalAlign=middle;align=center;" vertex="1" parent="WIyWlLk6GJQsqaUBKTNV-1">
          <mxGeometry x="290" y="390" width="100" height="40" as="geometry" />
        </mxCell>
        <mxCell id="soAtLsaEtBujQBLIhwr8-28" value="&lt;font style=&quot;font-size: 13px;&quot;&gt;false&lt;/font&gt;" style="text;strokeColor=none;fillColor=none;html=1;fontSize=24;fontStyle=1;verticalAlign=middle;align=center;" vertex="1" parent="WIyWlLk6GJQsqaUBKTNV-1">
          <mxGeometry x="600" y="390" width="100" height="40" as="geometry" />
        </mxCell>
        <mxCell id="soAtLsaEtBujQBLIhwr8-33" style="edgeStyle=orthogonalEdgeStyle;rounded=0;orthogonalLoop=1;jettySize=auto;html=1;exitX=0.5;exitY=1;exitDx=0;exitDy=0;entryX=0.5;entryY=0;entryDx=0;entryDy=0;" edge="1" parent="WIyWlLk6GJQsqaUBKTNV-1" source="soAtLsaEtBujQBLIhwr8-34" target="soAtLsaEtBujQBLIhwr8-37">
          <mxGeometry relative="1" as="geometry" />
        </mxCell>
        <mxCell id="soAtLsaEtBujQBLIhwr8-34" value="Начало" style="ellipse;whiteSpace=wrap;html=1;aspect=fixed;" vertex="1" parent="WIyWlLk6GJQsqaUBKTNV-1">
          <mxGeometry x="376" y="830" width="80" height="80" as="geometry" />
        </mxCell>
        <mxCell id="soAtLsaEtBujQBLIhwr8-35" value="Конец" style="ellipse;whiteSpace=wrap;html=1;aspect=fixed;" vertex="1" parent="WIyWlLk6GJQsqaUBKTNV-1">
          <mxGeometry x="374" y="1460" width="80" height="80" as="geometry" />
        </mxCell>
        <mxCell id="soAtLsaEtBujQBLIhwr8-36" style="edgeStyle=orthogonalEdgeStyle;rounded=0;orthogonalLoop=1;jettySize=auto;html=1;exitX=0.5;exitY=1;exitDx=0;exitDy=0;entryX=0.5;entryY=0;entryDx=0;entryDy=0;" edge="1" parent="WIyWlLk6GJQsqaUBKTNV-1" source="soAtLsaEtBujQBLIhwr8-37" target="soAtLsaEtBujQBLIhwr8-40">
          <mxGeometry relative="1" as="geometry" />
        </mxCell>
        <mxCell id="soAtLsaEtBujQBLIhwr8-37" value="Объявление A, B, C" style="rounded=1;whiteSpace=wrap;html=1;" vertex="1" parent="WIyWlLk6GJQsqaUBKTNV-1">
          <mxGeometry x="356" y="950" width="120" height="60" as="geometry" />
        </mxCell>
        <mxCell id="soAtLsaEtBujQBLIhwr8-38" style="edgeStyle=orthogonalEdgeStyle;rounded=0;orthogonalLoop=1;jettySize=auto;html=1;exitX=0;exitY=0.5;exitDx=0;exitDy=0;entryX=0.5;entryY=0;entryDx=0;entryDy=0;" edge="1" parent="WIyWlLk6GJQsqaUBKTNV-1" source="soAtLsaEtBujQBLIhwr8-40" target="soAtLsaEtBujQBLIhwr8-59">
          <mxGeometry relative="1" as="geometry">
            <mxPoint x="256" y="1160" as="targetPoint" />
          </mxGeometry>
        </mxCell>
        <mxCell id="soAtLsaEtBujQBLIhwr8-39" style="edgeStyle=orthogonalEdgeStyle;rounded=0;orthogonalLoop=1;jettySize=auto;html=1;exitX=1;exitY=0.5;exitDx=0;exitDy=0;entryX=0.5;entryY=0;entryDx=0;entryDy=0;" edge="1" parent="WIyWlLk6GJQsqaUBKTNV-1" source="soAtLsaEtBujQBLIhwr8-40" target="soAtLsaEtBujQBLIhwr8-60">
          <mxGeometry relative="1" as="geometry">
            <mxPoint x="552" y="1160" as="targetPoint" />
            <Array as="points">
              <mxPoint x="570" y="1100" />
              <mxPoint x="570" y="1220" />
              <mxPoint x="414" y="1220" />
            </Array>
          </mxGeometry>
        </mxCell>
        <mxCell id="soAtLsaEtBujQBLIhwr8-40" value="A &amp;lt; B" style="rhombus;whiteSpace=wrap;html=1;" vertex="1" parent="WIyWlLk6GJQsqaUBKTNV-1">
          <mxGeometry x="376" y="1060" width="80" height="80" as="geometry" />
        </mxCell>
        <mxCell id="soAtLsaEtBujQBLIhwr8-49" value="&lt;font style=&quot;font-size: 13px;&quot;&gt;true&lt;/font&gt;" style="text;strokeColor=none;fillColor=none;html=1;fontSize=24;fontStyle=1;verticalAlign=middle;align=center;" vertex="1" parent="WIyWlLk6GJQsqaUBKTNV-1">
          <mxGeometry x="296" y="1060" width="100" height="40" as="geometry" />
        </mxCell>
        <mxCell id="soAtLsaEtBujQBLIhwr8-51" value="&lt;font style=&quot;font-size: 13px;&quot;&gt;false&lt;/font&gt;" style="text;strokeColor=none;fillColor=none;html=1;fontSize=24;fontStyle=1;verticalAlign=middle;align=center;" vertex="1" parent="WIyWlLk6GJQsqaUBKTNV-1">
          <mxGeometry x="432" y="1060" width="100" height="40" as="geometry" />
        </mxCell>
        <mxCell id="soAtLsaEtBujQBLIhwr8-61" style="edgeStyle=orthogonalEdgeStyle;rounded=0;orthogonalLoop=1;jettySize=auto;html=1;exitX=0.5;exitY=1;exitDx=0;exitDy=0;" edge="1" parent="WIyWlLk6GJQsqaUBKTNV-1" source="soAtLsaEtBujQBLIhwr8-59" target="soAtLsaEtBujQBLIhwr8-60">
          <mxGeometry relative="1" as="geometry" />
        </mxCell>
        <mxCell id="soAtLsaEtBujQBLIhwr8-59" value="A = B" style="rounded=1;whiteSpace=wrap;html=1;" vertex="1" parent="WIyWlLk6GJQsqaUBKTNV-1">
          <mxGeometry x="194" y="1140" width="120" height="60" as="geometry" />
        </mxCell>
        <mxCell id="soAtLsaEtBujQBLIhwr8-65" style="edgeStyle=orthogonalEdgeStyle;rounded=0;orthogonalLoop=1;jettySize=auto;html=1;exitX=0;exitY=0.5;exitDx=0;exitDy=0;entryX=0.5;entryY=0;entryDx=0;entryDy=0;" edge="1" parent="WIyWlLk6GJQsqaUBKTNV-1" source="soAtLsaEtBujQBLIhwr8-60" target="soAtLsaEtBujQBLIhwr8-63">
          <mxGeometry relative="1" as="geometry" />
        </mxCell>
        <mxCell id="soAtLsaEtBujQBLIhwr8-66" style="edgeStyle=orthogonalEdgeStyle;rounded=0;orthogonalLoop=1;jettySize=auto;html=1;exitX=1;exitY=0.5;exitDx=0;exitDy=0;entryX=0.5;entryY=0;entryDx=0;entryDy=0;" edge="1" parent="WIyWlLk6GJQsqaUBKTNV-1" source="soAtLsaEtBujQBLIhwr8-60" target="soAtLsaEtBujQBLIhwr8-64">
          <mxGeometry relative="1" as="geometry" />
        </mxCell>
        <mxCell id="soAtLsaEtBujQBLIhwr8-60" value="A &amp;gt; C" style="rhombus;whiteSpace=wrap;html=1;" vertex="1" parent="WIyWlLk6GJQsqaUBKTNV-1">
          <mxGeometry x="374" y="1240" width="80" height="80" as="geometry" />
        </mxCell>
        <mxCell id="soAtLsaEtBujQBLIhwr8-69" style="edgeStyle=orthogonalEdgeStyle;rounded=0;orthogonalLoop=1;jettySize=auto;html=1;exitX=0.5;exitY=1;exitDx=0;exitDy=0;entryX=0.5;entryY=0;entryDx=0;entryDy=0;" edge="1" parent="WIyWlLk6GJQsqaUBKTNV-1" source="soAtLsaEtBujQBLIhwr8-63" target="soAtLsaEtBujQBLIhwr8-35">
          <mxGeometry relative="1" as="geometry" />
        </mxCell>
        <mxCell id="soAtLsaEtBujQBLIhwr8-63" value="Напечатать А" style="rounded=1;whiteSpace=wrap;html=1;" vertex="1" parent="WIyWlLk6GJQsqaUBKTNV-1">
          <mxGeometry x="194" y="1330" width="120" height="60" as="geometry" />
        </mxCell>
        <mxCell id="soAtLsaEtBujQBLIhwr8-70" style="edgeStyle=orthogonalEdgeStyle;rounded=0;orthogonalLoop=1;jettySize=auto;html=1;exitX=0.5;exitY=1;exitDx=0;exitDy=0;entryX=0.5;entryY=0;entryDx=0;entryDy=0;" edge="1" parent="WIyWlLk6GJQsqaUBKTNV-1" source="soAtLsaEtBujQBLIhwr8-64" target="soAtLsaEtBujQBLIhwr8-35">
          <mxGeometry relative="1" as="geometry">
            <mxPoint x="600" y="1540" as="targetPoint" />
          </mxGeometry>
        </mxCell>
        <mxCell id="soAtLsaEtBujQBLIhwr8-64" value="Напечатать C" style="rounded=1;whiteSpace=wrap;html=1;" vertex="1" parent="WIyWlLk6GJQsqaUBKTNV-1">
          <mxGeometry x="500" y="1330" width="120" height="60" as="geometry" />
        </mxCell>
        <mxCell id="soAtLsaEtBujQBLIhwr8-71" value="&lt;font style=&quot;font-size: 13px;&quot;&gt;true&lt;/font&gt;" style="text;strokeColor=none;fillColor=none;html=1;fontSize=24;fontStyle=1;verticalAlign=middle;align=center;" vertex="1" parent="WIyWlLk6GJQsqaUBKTNV-1">
          <mxGeometry x="296" y="1240" width="100" height="40" as="geometry" />
        </mxCell>
        <mxCell id="soAtLsaEtBujQBLIhwr8-72" value="&lt;font style=&quot;font-size: 13px;&quot;&gt;false&lt;/font&gt;" style="text;strokeColor=none;fillColor=none;html=1;fontSize=24;fontStyle=1;verticalAlign=middle;align=center;" vertex="1" parent="WIyWlLk6GJQsqaUBKTNV-1">
          <mxGeometry x="432" y="1240" width="100" height="40" as="geometry" />
        </mxCell>
      </root>
    </mxGraphModel>
  </diagram>
</mxfile>
